# xmcd CD database file
#
# Track frame offsets:
#	150
#	33243
#	60737
#	86117
#	109969
#	136533
#	143832
#	175748
#	192545
#	209748
#	214956
#	227600
#	244432
#
# Disc length: 3660 seconds
#
# Revision: 0
# Processed by: cddbd v1.4PL0 Copyright (c) Steve Scherf et al.
# Submitted via: CDex 1.50Beta7
#
DISCID=c50e4a0d
DTITLE=Hans Peter Neuber - Touching your Heart
DYEAR=1900
DGENRE=New Age
TTITLE0=Touching your Heart
TTITLE1=Jingle-Flowers
TTITLE2=Palancholica
TTITLE3=Ein offenes Herz - An Open Heart
TTITLE4=Morning's Joy
TTITLE5=Birds in China
TTITLE6=Experiences in the Meadow
TTITLE7=The Decoy
TTITLE8=Mal so mal so
TTITLE9=Call of the Angels
TTITLE10=Play of the Bells
TTITLE11=Flying Soap-Bubbles
TTITLE12=The Fawn
EXTD=
EXTT0=
EXTT1=
EXTT2=
EXTT3=
EXTT4=
EXTT5=
EXTT6=
EXTT7=
EXTT8=
EXTT9=
EXTT10=
EXTT11=
EXTT12=
PLAYORDER=
